<svg width="82" height="77" fill="none" xmlns="http://www.w3.org/2000/svg"><path d="m45.168 75.938-2.964-5.51m-26.38-49.036 7.41 13.774m0 0 3.401-11.57m-3.4 11.57-11.53-3.306m11.53 3.306 6.52 12.121m0 0 4.602-17.63m-4.602 17.63L14.28 42.88m15.475 4.407 7.707 14.326m0 0 6.162-23.141m-6.162 23.14-21.638-6.06m21.638 6.06 4.742 8.816m0 0C64.583 40.803 68.282 24.861 6.043 1.557" stroke="#344F10"/><path d="M6.03 1.002C-7.996 67.934 8.357 71.529 42.08 70.429m13.9-22.04 2.059-3.22m11.326-17.716L62.672 37.92m0 0h8.752m-8.752 0-2.574-8.264m2.574 8.264L58.04 45.17m0 0h11.326m-11.326 0-5.663 10.383 13.385 1.102" stroke="#344F10"/><path d="M44.654 67.123c31.252-.436 43.1-7.083 32.617-53.91" stroke="#344F10"/><path d="M77.601 13.678c-11.3 2.616-17.172 4.86-24.71 13.775" stroke="#344F10"/></svg>